<svg width="377" height="28" viewBox="0 0 377 28" fill="none" xmlns="http://www.w3.org/2000/svg">
<path d="M14.0887 4.83679C14.2657 4.84913 14.4383 4.898 14.5953 4.98083L14.6728 5.02539L14.7466 5.07483C14.8905 5.17874 15.011 5.31165 15.1006 5.46484L15.1427 5.54297L15.1434 5.54358L17.0684 9.44312C17.1355 9.57862 17.2342 9.69598 17.3565 9.78491C17.4789 9.87395 17.6212 9.93197 17.7709 9.95398L22.0757 10.5839C22.2816 10.6138 22.476 10.6936 22.6434 10.8158L22.7129 10.8707L22.7795 10.9299C22.9283 11.0742 23.0398 11.2532 23.1042 11.4512C23.1777 11.6774 23.1867 11.9197 23.1298 12.1506C23.0728 12.3817 22.9523 12.5924 22.7819 12.7585L19.6679 15.7908C19.5595 15.8965 19.4785 16.027 19.4317 16.171C19.3848 16.3151 19.3733 16.4684 19.3987 16.6178L20.133 20.897L20.1458 20.9855C20.1675 21.1925 20.1381 21.4026 20.0597 21.5964C19.9702 21.8179 19.8202 22.0096 19.627 22.15C19.4336 22.2905 19.2044 22.3739 18.966 22.3905C18.7276 22.4071 18.4891 22.3563 18.2781 22.244L14.4341 20.2225C14.3001 20.1522 14.1509 20.1157 13.9996 20.1157C13.8481 20.1157 13.699 20.1528 13.565 20.2231L13.5644 20.2225L9.71916 22.2446L9.71977 22.2452C9.50897 22.3568 9.27102 22.4068 9.03313 22.3899C8.79509 22.373 8.56632 22.2898 8.37334 22.1494C8.18035 22.0091 8.03064 21.8171 7.94121 21.5958C7.85182 21.3746 7.82613 21.1326 7.86735 20.8976L8.601 16.6184L8.61381 16.5055C8.61927 16.3926 8.6038 16.2791 8.56865 16.171C8.52174 16.0269 8.44044 15.8959 8.33183 15.7902L5.22148 12.7616C5.04975 12.5957 4.92774 12.3853 4.86992 12.1537C4.81211 11.922 4.82062 11.6783 4.89433 11.4512C4.96806 11.2241 5.10403 11.0225 5.28679 10.8689L5.35698 10.814C5.50127 10.709 5.66589 10.6352 5.84038 10.5979L5.92827 10.5826L10.2288 9.95398C10.3786 9.93216 10.5213 9.87387 10.6438 9.78491C10.7663 9.69599 10.8654 9.57874 10.9325 9.44312L12.857 5.54358L12.8576 5.54297C12.963 5.33002 13.1257 5.15073 13.3276 5.02539L13.4045 4.98083C13.5876 4.88413 13.7922 4.83374 14.0002 4.83374L14.0887 4.83679ZM12.4273 10.1804C12.2406 10.5583 11.9645 10.8861 11.6235 11.1338C11.2825 11.3814 10.8863 11.5418 10.4693 11.6025L6.94878 12.1177L9.49455 14.5963C9.7969 14.8908 10.0232 15.2545 10.1537 15.6559C10.2842 16.0572 10.3154 16.4845 10.2441 16.9004L9.64348 20.4014L12.7898 18.7473L12.9321 18.6783C13.2671 18.5276 13.6309 18.4489 13.9996 18.4489C14.3682 18.4489 14.732 18.5276 15.0671 18.6783L15.2093 18.7473L18.3569 20.402L17.7563 16.8992C17.6853 16.4835 17.7161 16.0562 17.8466 15.6553C17.9771 15.2543 18.2032 14.8912 18.5052 14.5969L21.0497 12.1177L17.5292 11.6031C17.1126 11.542 16.7168 11.3802 16.3763 11.1326C16.0358 10.8849 15.7602 10.5585 15.5737 10.181L14.0002 6.99316L12.4273 10.1804Z" fill="#D1D5DC"/>
<path d="M46.0887 4.83679C46.2657 4.84913 46.4383 4.898 46.5953 4.98083L46.6728 5.02539L46.7466 5.07483C46.8905 5.17874 47.011 5.31165 47.1006 5.46484L47.1427 5.54297L47.1434 5.54358L49.0684 9.44312C49.1355 9.57862 49.2342 9.69598 49.3565 9.78491C49.4789 9.87395 49.6212 9.93197 49.7709 9.95398L54.0757 10.5839C54.2816 10.6138 54.476 10.6936 54.6434 10.8158L54.7129 10.8707L54.7795 10.9299C54.9283 11.0742 55.0398 11.2532 55.1042 11.4512C55.1777 11.6774 55.1867 11.9197 55.1298 12.1506C55.0728 12.3817 54.9523 12.5924 54.7819 12.7585L51.6679 15.7908C51.5595 15.8965 51.4785 16.027 51.4317 16.171C51.3848 16.3151 51.3733 16.4684 51.3987 16.6178L52.133 20.897L52.1458 20.9855C52.1675 21.1925 52.1381 21.4026 52.0597 21.5964C51.9702 21.8179 51.8202 22.0096 51.627 22.15C51.4336 22.2905 51.2044 22.3739 50.966 22.3905C50.7276 22.4071 50.4891 22.3563 50.2781 22.244L46.4341 20.2225C46.3001 20.1522 46.1509 20.1157 45.9996 20.1157C45.8481 20.1157 45.699 20.1528 45.565 20.2231L45.5644 20.2225L41.7192 22.2446L41.7198 22.2452C41.509 22.3568 41.271 22.4068 41.0331 22.3899C40.7951 22.373 40.5663 22.2898 40.3733 22.1494C40.1804 22.0091 40.0306 21.8171 39.9412 21.5958C39.8518 21.3746 39.8261 21.1326 39.8674 20.8976L40.601 16.6184L40.6138 16.5055C40.6193 16.3926 40.6038 16.2791 40.5686 16.171C40.5217 16.0269 40.4404 15.8959 40.3318 15.7902L37.2215 12.7616C37.0497 12.5957 36.9277 12.3853 36.8699 12.1537C36.8121 11.922 36.8206 11.6783 36.8943 11.4512C36.9681 11.2241 37.104 11.0225 37.2868 10.8689L37.357 10.814C37.5013 10.709 37.6659 10.6352 37.8404 10.5979L37.9283 10.5826L42.2288 9.95398C42.3786 9.93216 42.5213 9.87387 42.6438 9.78491C42.7663 9.69599 42.8654 9.57874 42.9325 9.44312L44.857 5.54358L44.8576 5.54297C44.963 5.33002 45.1257 5.15073 45.3276 5.02539L45.4045 4.98083C45.5876 4.88413 45.7922 4.83374 46.0002 4.83374L46.0887 4.83679ZM44.4273 10.1804C44.2406 10.5583 43.9645 10.8861 43.6235 11.1338C43.2825 11.3814 42.8863 11.5418 42.4693 11.6025L38.9488 12.1177L41.4946 14.5963C41.7969 14.8908 42.0232 15.2545 42.1537 15.6559C42.2842 16.0572 42.3154 16.4845 42.2441 16.9004L41.6435 20.4014L44.7898 18.7473L44.9321 18.6783C45.2671 18.5276 45.6309 18.4489 45.9996 18.4489C46.3682 18.4489 46.732 18.5276 47.0671 18.6783L47.2093 18.7473L50.3569 20.402L49.7563 16.8992C49.6853 16.4835 49.7161 16.0562 49.8466 15.6553C49.9771 15.2543 50.2032 14.8912 50.5052 14.5969L53.0497 12.1177L49.5292 11.6031C49.1126 11.542 48.7168 11.3802 48.3763 11.1326C48.0358 10.8849 47.7602 10.5585 47.5737 10.181L46.0002 6.99316L44.4273 10.1804Z" fill="#D1D5DC"/>
<path d="M78.0887 4.83679C78.2657 4.84913 78.4383 4.898 78.5953 4.98083L78.6728 5.02539L78.7466 5.07483C78.8905 5.17874 79.011 5.31165 79.1006 5.46484L79.1427 5.54297L79.1434 5.54358L81.0684 9.44312C81.1355 9.57862 81.2342 9.69598 81.3565 9.78491C81.4789 9.87395 81.6212 9.93197 81.7709 9.95398L86.0757 10.5839C86.2816 10.6138 86.476 10.6936 86.6434 10.8158L86.7129 10.8707L86.7795 10.9299C86.9283 11.0742 87.0398 11.2532 87.1042 11.4512C87.1777 11.6774 87.1867 11.9197 87.1298 12.1506C87.0728 12.3817 86.9523 12.5924 86.7819 12.7585L83.6679 15.7908C83.5595 15.8965 83.4785 16.027 83.4317 16.171C83.3848 16.3151 83.3733 16.4684 83.3987 16.6178L84.133 20.897L84.1458 20.9855C84.1675 21.1925 84.1381 21.4026 84.0597 21.5964C83.9702 21.8179 83.8202 22.0096 83.627 22.15C83.4336 22.2905 83.2044 22.3739 82.966 22.3905C82.7276 22.4071 82.4891 22.3563 82.2781 22.244L78.4341 20.2225C78.3001 20.1522 78.1509 20.1157 77.9996 20.1157C77.8481 20.1157 77.699 20.1528 77.565 20.2231L77.5644 20.2225L73.7192 22.2446L73.7198 22.2452C73.509 22.3568 73.271 22.4068 73.0331 22.3899C72.7951 22.373 72.5663 22.2898 72.3733 22.1494C72.1804 22.0091 72.0306 21.8171 71.9412 21.5958C71.8518 21.3746 71.8261 21.1326 71.8674 20.8976L72.601 16.6184L72.6138 16.5055C72.6193 16.3926 72.6038 16.2791 72.5686 16.171C72.5217 16.0269 72.4404 15.8959 72.3318 15.7902L69.2215 12.7616C69.0497 12.5957 68.9277 12.3853 68.8699 12.1537C68.8121 11.922 68.8206 11.6783 68.8943 11.4512C68.9681 11.2241 69.104 11.0225 69.2868 10.8689L69.357 10.814C69.5013 10.709 69.6659 10.6352 69.8404 10.5979L69.9283 10.5826L74.2288 9.95398C74.3786 9.93216 74.5213 9.87387 74.6438 9.78491C74.7663 9.69599 74.8654 9.57874 74.9325 9.44312L76.857 5.54358L76.8576 5.54297C76.963 5.33002 77.1257 5.15073 77.3276 5.02539L77.4045 4.98083C77.5876 4.88413 77.7922 4.83374 78.0002 4.83374L78.0887 4.83679ZM76.4273 10.1804C76.2406 10.5583 75.9645 10.8861 75.6235 11.1338C75.2825 11.3814 74.8863 11.5418 74.4693 11.6025L70.9488 12.1177L73.4946 14.5963C73.7969 14.8908 74.0232 15.2545 74.1537 15.6559C74.2842 16.0572 74.3154 16.4845 74.2441 16.9004L73.6435 20.4014L76.7898 18.7473L76.9321 18.6783C77.2671 18.5276 77.6309 18.4489 77.9996 18.4489C78.3682 18.4489 78.732 18.5276 79.0671 18.6783L79.2093 18.7473L82.3569 20.402L81.7563 16.8992C81.6853 16.4835 81.7161 16.0562 81.8466 15.6553C81.9771 15.2543 82.2032 14.8912 82.5052 14.5969L85.0497 12.1177L81.5292 11.6031C81.1126 11.542 80.7168 11.3802 80.3763 11.1326C80.0358 10.8849 79.7602 10.5585 79.5737 10.181L78.0002 6.99316L76.4273 10.1804Z" fill="#D1D5DC"/>
<path d="M110.089 4.83679C110.266 4.84913 110.438 4.898 110.595 4.98083L110.673 5.02539L110.747 5.07483C110.89 5.17874 111.011 5.31165 111.101 5.46484L111.143 5.54297L111.143 5.54358L113.068 9.44312C113.135 9.57862 113.234 9.69598 113.356 9.78491C113.479 9.87395 113.621 9.93197 113.771 9.95398L118.076 10.5839C118.282 10.6138 118.476 10.6936 118.643 10.8158L118.713 10.8707L118.779 10.9299C118.928 11.0742 119.04 11.2532 119.104 11.4512C119.178 11.6774 119.187 11.9197 119.13 12.1506C119.073 12.3817 118.952 12.5924 118.782 12.7585L115.668 15.7908C115.56 15.8965 115.479 16.027 115.432 16.171C115.385 16.3151 115.373 16.4684 115.399 16.6178L116.133 20.897L116.146 20.9855C116.168 21.1925 116.138 21.4026 116.06 21.5964C115.97 21.8179 115.82 22.0096 115.627 22.15C115.434 22.2905 115.204 22.3739 114.966 22.3905C114.728 22.4071 114.489 22.3563 114.278 22.244L110.434 20.2225C110.3 20.1522 110.151 20.1157 110 20.1157C109.848 20.1157 109.699 20.1528 109.565 20.2231L109.564 20.2225L105.719 22.2446L105.72 22.2452C105.509 22.3568 105.271 22.4068 105.033 22.3899C104.795 22.373 104.566 22.2898 104.373 22.1494C104.18 22.0091 104.031 21.8171 103.941 21.5958C103.852 21.3746 103.826 21.1326 103.867 20.8976L104.601 16.6184L104.614 16.5055C104.619 16.3926 104.604 16.2791 104.569 16.171C104.522 16.0269 104.44 15.8959 104.332 15.7902L101.221 12.7616C101.05 12.5957 100.928 12.3853 100.87 12.1537C100.812 11.922 100.821 11.6783 100.894 11.4512C100.968 11.2241 101.104 11.0225 101.287 10.8689L101.357 10.814C101.501 10.709 101.666 10.6352 101.84 10.5979L101.928 10.5826L106.229 9.95398C106.379 9.93216 106.521 9.87387 106.644 9.78491C106.766 9.69599 106.865 9.57874 106.933 9.44312L108.857 5.54358L108.858 5.54297C108.963 5.33002 109.126 5.15073 109.328 5.02539L109.404 4.98083C109.588 4.88413 109.792 4.83374 110 4.83374L110.089 4.83679ZM108.427 10.1804C108.241 10.5583 107.965 10.8861 107.623 11.1338C107.282 11.3814 106.886 11.5418 106.469 11.6025L102.949 12.1177L105.495 14.5963C105.797 14.8908 106.023 15.2545 106.154 15.6559C106.284 16.0572 106.315 16.4845 106.244 16.9004L105.643 20.4014L108.79 18.7473L108.932 18.6783C109.267 18.5276 109.631 18.4489 110 18.4489C110.368 18.4489 110.732 18.5276 111.067 18.6783L111.209 18.7473L114.357 20.402L113.756 16.8992C113.685 16.4835 113.716 16.0562 113.847 15.6553C113.977 15.2543 114.203 14.8912 114.505 14.5969L117.05 12.1177L113.529 11.6031C113.113 11.542 112.717 11.3802 112.376 11.1326C112.036 10.8849 111.76 10.5585 111.574 10.181L110 6.99316L108.427 10.1804Z" fill="#D1D5DC"/>
<path d="M142.089 4.83679C142.266 4.84913 142.438 4.898 142.595 4.98083L142.673 5.02539L142.747 5.07483C142.89 5.17874 143.011 5.31165 143.101 5.46484L143.143 5.54297L143.143 5.54358L145.068 9.44312C145.135 9.57862 145.234 9.69598 145.356 9.78491C145.479 9.87395 145.621 9.93197 145.771 9.95398L150.076 10.5839C150.282 10.6138 150.476 10.6936 150.643 10.8158L150.713 10.8707L150.779 10.9299C150.928 11.0742 151.04 11.2532 151.104 11.4512C151.178 11.6774 151.187 11.9197 151.13 12.1506C151.073 12.3817 150.952 12.5924 150.782 12.7585L147.668 15.7908C147.56 15.8965 147.479 16.027 147.432 16.171C147.385 16.3151 147.373 16.4684 147.399 16.6178L148.133 20.897L148.146 20.9855C148.168 21.1925 148.138 21.4026 148.06 21.5964C147.97 21.8179 147.82 22.0096 147.627 22.15C147.434 22.2905 147.204 22.3739 146.966 22.3905C146.728 22.4071 146.489 22.3563 146.278 22.244L142.434 20.2225C142.3 20.1522 142.151 20.1157 142 20.1157C141.848 20.1157 141.699 20.1528 141.565 20.2231L141.564 20.2225L137.719 22.2446L137.72 22.2452C137.509 22.3568 137.271 22.4068 137.033 22.3899C136.795 22.373 136.566 22.2898 136.373 22.1494C136.18 22.0091 136.031 21.8171 135.941 21.5958C135.852 21.3746 135.826 21.1326 135.867 20.8976L136.601 16.6184L136.614 16.5055C136.619 16.3926 136.604 16.2791 136.569 16.171C136.522 16.0269 136.44 15.8959 136.332 15.7902L133.221 12.7616C133.05 12.5957 132.928 12.3853 132.87 12.1537C132.812 11.922 132.821 11.6783 132.894 11.4512C132.968 11.2241 133.104 11.0225 133.287 10.8689L133.357 10.814C133.501 10.709 133.666 10.6352 133.84 10.5979L133.928 10.5826L138.229 9.95398C138.379 9.93216 138.521 9.87387 138.644 9.78491C138.766 9.69599 138.865 9.57874 138.933 9.44312L140.857 5.54358L140.858 5.54297C140.963 5.33002 141.126 5.15073 141.328 5.02539L141.404 4.98083C141.588 4.88413 141.792 4.83374 142 4.83374L142.089 4.83679ZM140.427 10.1804C140.241 10.5583 139.965 10.8861 139.623 11.1338C139.282 11.3814 138.886 11.5418 138.469 11.6025L134.949 12.1177L137.495 14.5963C137.797 14.8908 138.023 15.2545 138.154 15.6559C138.284 16.0572 138.315 16.4845 138.244 16.9004L137.643 20.4014L140.79 18.7473L140.932 18.6783C141.267 18.5276 141.631 18.4489 142 18.4489C142.368 18.4489 142.732 18.5276 143.067 18.6783L143.209 18.7473L146.357 20.402L145.756 16.8992C145.685 16.4835 145.716 16.0562 145.847 15.6553C145.977 15.2543 146.203 14.8912 146.505 14.5969L149.05 12.1177L145.529 11.6031C145.113 11.542 144.717 11.3802 144.376 11.1326C144.036 10.8849 143.76 10.5585 143.574 10.181L142 6.99316L140.427 10.1804Z" fill="#D1D5DC"/>
</svg>
