<svg width="196" height="16" viewBox="0 0 196 16" fill="none" xmlns="http://www.w3.org/2000/svg">
<path d="M7.68339 1.53009C7.7126 1.47107 7.75774 1.42138 7.81369 1.38664C7.86964 1.3519 7.93419 1.3335 8.00005 1.3335C8.06592 1.3335 8.13047 1.3519 8.18642 1.38664C8.24237 1.42138 8.28751 1.47107 8.31672 1.53009L9.85672 4.64943C9.95817 4.85474 10.1079 5.03236 10.2931 5.16706C10.4783 5.30176 10.6935 5.3895 10.9201 5.42276L14.3641 5.92676C14.4293 5.93621 14.4906 5.96374 14.541 6.00623C14.5915 6.04871 14.629 6.10446 14.6494 6.16716C14.6698 6.22987 14.6722 6.29703 14.6564 6.36105C14.6407 6.42507 14.6073 6.48339 14.5601 6.52943L12.0694 8.95476C11.9051 9.11483 11.7822 9.31242 11.7113 9.53051C11.6403 9.74861 11.6234 9.98069 11.6621 10.2068L12.2501 13.6334C12.2616 13.6987 12.2545 13.7658 12.2297 13.8272C12.2049 13.8886 12.1633 13.9418 12.1098 13.9808C12.0562 14.0197 11.9927 14.0428 11.9266 14.0474C11.8606 14.052 11.7945 14.0379 11.7361 14.0068L8.65739 12.3881C8.45453 12.2816 8.22884 12.2259 7.99972 12.2259C7.7706 12.2259 7.54491 12.2816 7.34205 12.3881L4.26406 14.0068C4.20561 14.0377 4.13965 14.0516 4.07369 14.0469C4.00773 14.0422 3.9444 14.0191 3.89092 13.9802C3.83744 13.9413 3.79594 13.8882 3.77116 13.8269C3.74638 13.7656 3.73929 13.6986 3.75072 13.6334L4.33806 10.2074C4.37685 9.98125 4.36004 9.74903 4.28908 9.53079C4.21812 9.31256 4.09513 9.11486 3.93072 8.95476L1.44006 6.53009C1.39245 6.48411 1.35872 6.42569 1.3427 6.36148C1.32668 6.29726 1.32901 6.22984 1.34944 6.16689C1.36987 6.10394 1.40757 6.04799 1.45824 6.00541C1.50891 5.96284 1.57052 5.93536 1.63606 5.92609L5.07939 5.42276C5.30623 5.38976 5.52165 5.30213 5.70711 5.16742C5.89257 5.0327 6.04252 4.85494 6.14405 4.64943L7.68339 1.53009Z" fill="#FDC700"/>
<path d="M8.07096 0.669434C8.21259 0.679303 8.35068 0.718398 8.47623 0.784668L8.53824 0.820312L8.59733 0.859863C8.71242 0.942988 8.80885 1.04932 8.88053 1.17188L8.91422 1.23438L8.91471 1.23486L10.4547 4.35449C10.5084 4.4629 10.5874 4.55678 10.6852 4.62793C10.7832 4.69916 10.8969 4.74558 11.0168 4.76318L14.4606 5.26709C14.6253 5.29104 14.7808 5.35491 14.9147 5.45264L14.9704 5.49658L15.0236 5.54395C15.1427 5.65938 15.2318 5.80257 15.2834 5.96094C15.3422 6.14188 15.3494 6.33575 15.3039 6.52051C15.2583 6.70532 15.1618 6.87395 15.0255 7.00684L12.5343 9.43262C12.4476 9.51722 12.3829 9.62161 12.3454 9.73682C12.3079 9.8521 12.2986 9.97474 12.319 10.0942L12.9064 13.5176L12.9167 13.5884C12.9341 13.754 12.9105 13.922 12.8478 14.0771C12.7762 14.2543 12.6562 14.4077 12.5016 14.52C12.3469 14.6324 12.1636 14.6991 11.9728 14.7124C11.7821 14.7257 11.5913 14.6851 11.4225 14.5952L8.34733 12.978C8.24013 12.9218 8.12073 12.8926 7.99967 12.8926C7.87854 12.8926 7.75926 12.9222 7.65201 12.9785L7.65153 12.978L4.57535 14.5957L4.57584 14.5962C4.4072 14.6854 4.21684 14.7254 4.02653 14.7119C3.8361 14.6984 3.65308 14.6318 3.49869 14.5195C3.34431 14.4072 3.22454 14.2536 3.15299 14.0767C3.08148 13.8997 3.06093 13.7061 3.09391 13.5181L3.68082 10.0947L3.69108 10.0044C3.69544 9.91407 3.68306 9.82329 3.65494 9.73682C3.61741 9.62149 3.55238 9.51674 3.46549 9.43213L0.977209 7.00928C0.839821 6.87658 0.742217 6.70827 0.695959 6.52295C0.649711 6.33757 0.656519 6.14266 0.71549 5.96094C0.774471 5.77931 0.883248 5.61796 1.02945 5.49512L1.08561 5.45117C1.20104 5.36721 1.33273 5.30815 1.47233 5.27832L1.54264 5.26611L4.98307 4.76318C5.10292 4.74573 5.21709 4.69909 5.3151 4.62793C5.41304 4.55679 5.49237 4.46299 5.54606 4.35449L7.08561 1.23486L7.0861 1.23438C7.17043 1.06401 7.30057 0.920581 7.46207 0.820312L7.5236 0.784668C7.67008 0.707302 7.83378 0.666992 8.00016 0.666992L8.07096 0.669434ZM6.74186 4.94434C6.59248 5.24668 6.37164 5.50884 6.09879 5.70703C5.82601 5.90513 5.50906 6.03347 5.17545 6.08203L2.35904 6.49414L4.39567 8.47705C4.63755 8.7126 4.8186 9.00363 4.92301 9.32471C5.0274 9.64577 5.05235 9.98756 4.99528 10.3203L4.51481 13.1211L7.0319 11.7979L7.14567 11.7427C7.41374 11.622 7.70475 11.5591 7.99967 11.5591C8.29457 11.5591 8.58561 11.6221 8.85367 11.7427L8.96744 11.7979L11.4855 13.1216L11.005 10.3193C10.9483 9.98682 10.9729 9.64499 11.0773 9.32422C11.1817 9.00344 11.3626 8.71298 11.6042 8.47754L13.6398 6.49414L10.8234 6.08252C10.4901 6.0336 10.1735 5.9042 9.90104 5.70605C9.62863 5.50792 9.40817 5.24681 9.25895 4.94482L8.00016 2.39453L6.74186 4.94434Z" fill="#FDC700"/>
<path d="M27.6834 1.53009C27.7126 1.47107 27.7577 1.42138 27.8137 1.38664C27.8696 1.3519 27.9342 1.3335 28.0001 1.3335C28.0659 1.3335 28.1305 1.3519 28.1864 1.38664C28.2424 1.42138 28.2875 1.47107 28.3167 1.53009L29.8567 4.64943C29.9582 4.85474 30.1079 5.03236 30.2931 5.16706C30.4783 5.30176 30.6935 5.3895 30.9201 5.42276L34.3641 5.92676C34.4293 5.93621 34.4906 5.96374 34.541 6.00623C34.5915 6.04871 34.629 6.10446 34.6494 6.16716C34.6698 6.22987 34.6722 6.29703 34.6564 6.36105C34.6407 6.42507 34.6073 6.48339 34.5601 6.52943L32.0694 8.95476C31.9051 9.11483 31.7822 9.31242 31.7113 9.53051C31.6403 9.74861 31.6234 9.98069 31.6621 10.2068L32.2501 13.6334C32.2616 13.6987 32.2545 13.7658 32.2297 13.8272C32.2049 13.8886 32.1633 13.9418 32.1098 13.9808C32.0562 14.0197 31.9927 14.0428 31.9266 14.0474C31.8606 14.052 31.7945 14.0379 31.7361 14.0068L28.6574 12.3881C28.4545 12.2816 28.2288 12.2259 27.9997 12.2259C27.7706 12.2259 27.5449 12.2816 27.3421 12.3881L24.2641 14.0068C24.2056 14.0377 24.1397 14.0516 24.0737 14.0469C24.0077 14.0422 23.9444 14.0191 23.8909 13.9802C23.8374 13.9413 23.7959 13.8882 23.7712 13.8269C23.7464 13.7656 23.7393 13.6986 23.7507 13.6334L24.3381 10.2074C24.3769 9.98125 24.36 9.74903 24.2891 9.53079C24.2181 9.31256 24.0951 9.11486 23.9307 8.95476L21.4401 6.53009C21.3925 6.48411 21.3587 6.42569 21.3427 6.36148C21.3267 6.29726 21.329 6.22984 21.3494 6.16689C21.3699 6.10394 21.4076 6.04799 21.4582 6.00541C21.5089 5.96284 21.5705 5.93536 21.6361 5.92609L25.0794 5.42276C25.3062 5.38976 25.5216 5.30213 25.7071 5.16742C25.8926 5.0327 26.0425 4.85494 26.1441 4.64943L27.6834 1.53009Z" fill="#FDC700"/>
<path d="M28.071 0.669434C28.2126 0.679303 28.3507 0.718398 28.4762 0.784668L28.5382 0.820312L28.5973 0.859863C28.7124 0.942988 28.8089 1.04932 28.8805 1.17188L28.9142 1.23438L28.9147 1.23486L30.4547 4.35449C30.5084 4.4629 30.5874 4.55678 30.6852 4.62793C30.7832 4.69916 30.8969 4.74558 31.0168 4.76318L34.4606 5.26709C34.6253 5.29104 34.7808 5.35491 34.9147 5.45264L34.9704 5.49658L35.0236 5.54395C35.1427 5.65938 35.2318 5.80257 35.2834 5.96094C35.3422 6.14188 35.3494 6.33575 35.3039 6.52051C35.2583 6.70532 35.1618 6.87395 35.0255 7.00684L32.5343 9.43262C32.4476 9.51722 32.3829 9.62161 32.3454 9.73682C32.3079 9.8521 32.2986 9.97474 32.319 10.0942L32.9064 13.5176L32.9167 13.5884C32.9341 13.754 32.9105 13.922 32.8478 14.0771C32.7762 14.2543 32.6562 14.4077 32.5016 14.52C32.3469 14.6324 32.1636 14.6991 31.9728 14.7124C31.7821 14.7257 31.5913 14.6851 31.4225 14.5952L28.3473 12.978C28.2401 12.9218 28.1207 12.8926 27.9997 12.8926C27.8785 12.8926 27.7593 12.9222 27.652 12.9785L27.6515 12.978L24.5754 14.5957L24.5758 14.5962C24.4072 14.6854 24.2168 14.7254 24.0265 14.7119C23.8361 14.6984 23.6531 14.6318 23.4987 14.5195C23.3443 14.4072 23.2245 14.2536 23.153 14.0767C23.0815 13.8997 23.0609 13.7061 23.0939 13.5181L23.6808 10.0947L23.6911 10.0044C23.6954 9.91407 23.6831 9.82329 23.6549 9.73682C23.6174 9.62149 23.5524 9.51674 23.4655 9.43213L20.9772 7.00928C20.8398 6.87658 20.7422 6.70827 20.696 6.52295C20.6497 6.33757 20.6565 6.14266 20.7155 5.96094C20.7745 5.77931 20.8832 5.61796 21.0295 5.49512L21.0856 5.45117C21.201 5.36721 21.3327 5.30815 21.4723 5.27832L21.5426 5.26611L24.9831 4.76318C25.1029 4.74573 25.2171 4.69909 25.3151 4.62793C25.413 4.55679 25.4924 4.46299 25.5461 4.35449L27.0856 1.23486L27.0861 1.23438C27.1704 1.06401 27.3006 0.920581 27.4621 0.820312L27.5236 0.784668C27.6701 0.707302 27.8338 0.666992 28.0002 0.666992L28.071 0.669434ZM26.7419 4.94434C26.5925 5.24668 26.3716 5.50884 26.0988 5.70703C25.826 5.90513 25.5091 6.03347 25.1755 6.08203L22.359 6.49414L24.3957 8.47705C24.6375 8.7126 24.8186 9.00363 24.923 9.32471C25.0274 9.64577 25.0524 9.98756 24.9953 10.3203L24.5148 13.1211L27.0319 11.7979L27.1457 11.7427C27.4137 11.622 27.7048 11.5591 27.9997 11.5591C28.2946 11.5591 28.5856 11.6221 28.8537 11.7427L28.9674 11.7979L31.4855 13.1216L31.005 10.3193C30.9483 9.98682 30.9729 9.64499 31.0773 9.32422C31.1817 9.00344 31.3626 8.71298 31.6042 8.47754L33.6398 6.49414L30.8234 6.08252C30.4901 6.0336 30.1735 5.9042 29.901 5.70605C29.6286 5.50792 29.4082 5.24681 29.2589 4.94482L28.0002 2.39453L26.7419 4.94434Z" fill="#FDC700"/>
<path d="M47.6833 1.53009C47.7125 1.47107 47.7576 1.42138 47.8136 1.38664C47.8695 1.3519 47.9341 1.3335 47.9999 1.3335C48.0658 1.3335 48.1303 1.3519 48.1863 1.38664C48.2423 1.42138 48.2874 1.47107 48.3166 1.53009L49.8566 4.64943C49.9581 4.85474 50.1078 5.03236 50.293 5.16706C50.4782 5.30176 50.6933 5.3895 50.9199 5.42276L54.3639 5.92676C54.4292 5.93621 54.4905 5.96374 54.5409 6.00623C54.5914 6.04871 54.6289 6.10446 54.6493 6.16716C54.6697 6.22987 54.6721 6.29703 54.6563 6.36105C54.6405 6.42507 54.6071 6.48339 54.5599 6.52943L52.0693 8.95476C51.905 9.11483 51.7821 9.31242 51.7112 9.53051C51.6402 9.74861 51.6233 9.98069 51.6619 10.2068L52.2499 13.6334C52.2615 13.6987 52.2544 13.7658 52.2296 13.8272C52.2048 13.8886 52.1632 13.9418 52.1096 13.9808C52.056 14.0197 51.9926 14.0428 51.9265 14.0474C51.8604 14.052 51.7944 14.0379 51.7359 14.0068L48.6573 12.3881C48.4544 12.2816 48.2287 12.2259 47.9996 12.2259C47.7705 12.2259 47.5448 12.2816 47.3419 12.3881L44.2639 14.0068C44.2055 14.0377 44.1395 14.0516 44.0736 14.0469C44.0076 14.0422 43.9443 14.0191 43.8908 13.9802C43.8373 13.9413 43.7958 13.8882 43.771 13.8269C43.7463 13.7656 43.7392 13.6986 43.7506 13.6334L44.3379 10.2074C44.3767 9.98125 44.3599 9.74903 44.289 9.53079C44.218 9.31256 44.095 9.11486 43.9306 8.95476L41.4399 6.53009C41.3923 6.48411 41.3586 6.42569 41.3426 6.36148C41.3266 6.29726 41.3289 6.22984 41.3493 6.16689C41.3697 6.10394 41.4074 6.04799 41.4581 6.00541C41.5088 5.96284 41.5704 5.93536 41.6359 5.92609L45.0793 5.42276C45.3061 5.38976 45.5215 5.30213 45.707 5.16742C45.8925 5.0327 46.0424 4.85494 46.1439 4.64943L47.6833 1.53009Z" fill="#FDC700"/>
<path d="M48.0708 0.669434C48.2125 0.679303 48.3506 0.718398 48.4761 0.784668L48.5381 0.820312L48.5972 0.859863C48.7123 0.942988 48.8087 1.04932 48.8804 1.17188L48.9141 1.23438L48.9146 1.23486L50.4546 4.35449C50.5083 4.4629 50.5873 4.55678 50.6851 4.62793C50.783 4.69916 50.8968 4.74558 51.0166 4.76318L54.4605 5.26709C54.6252 5.29104 54.7807 5.35491 54.9146 5.45264L54.9703 5.49658L55.0235 5.54395C55.1425 5.65938 55.2317 5.80257 55.2832 5.96094C55.3421 6.14188 55.3493 6.33575 55.3037 6.52051C55.2582 6.70532 55.1617 6.87395 55.0254 7.00684L52.5342 9.43262C52.4475 9.51722 52.3827 9.62161 52.3453 9.73682C52.3077 9.8521 52.2985 9.97474 52.3189 10.0942L52.9063 13.5176L52.9165 13.5884C52.9339 13.754 52.9103 13.922 52.8477 14.0771C52.7761 14.2543 52.6561 14.4077 52.5015 14.52C52.3468 14.6324 52.1634 14.6991 51.9727 14.7124C51.782 14.7257 51.5911 14.6851 51.4224 14.5952L48.3472 12.978C48.24 12.9218 48.1206 12.8926 47.9995 12.8926C47.8784 12.8926 47.7591 12.9222 47.6519 12.9785L47.6514 12.978L44.5752 14.5957L44.5757 14.5962C44.4071 14.6854 44.2167 14.7254 44.0264 14.7119C43.836 14.6984 43.653 14.6318 43.4986 14.5195C43.3442 14.4072 43.2244 14.2536 43.1529 14.0767C43.0814 13.8997 43.0608 13.7061 43.0938 13.5181L43.6807 10.0947L43.691 10.0044C43.6953 9.91407 43.6829 9.82329 43.6548 9.73682C43.6173 9.62149 43.5523 9.51674 43.4654 9.43213L40.9771 7.00928C40.8397 6.87658 40.7421 6.70827 40.6958 6.52295C40.6496 6.33757 40.6564 6.14266 40.7154 5.96094C40.7743 5.77931 40.8831 5.61796 41.0293 5.49512L41.0855 5.45117C41.2009 5.36721 41.3326 5.30815 41.4722 5.27832L41.5425 5.26611L44.9829 4.76318C45.1028 4.74573 45.217 4.69909 45.315 4.62793C45.4129 4.55679 45.4923 4.46299 45.5459 4.35449L47.0855 1.23486L47.086 1.23438C47.1703 1.06401 47.3004 0.920581 47.4619 0.820312L47.5235 0.784668C47.67 0.707302 47.8337 0.666992 48 0.666992L48.0708 0.669434ZM46.7417 4.94434C46.5924 5.24668 46.3715 5.50884 46.0987 5.70703C45.8259 5.90513 45.5089 6.03347 45.1753 6.08203L42.3589 6.49414L44.3955 8.47705C44.6374 8.7126 44.8185 9.00363 44.9229 9.32471C45.0273 9.64577 45.0522 9.98756 44.9952 10.3203L44.5147 13.1211L47.0318 11.7979L47.1455 11.7427C47.4136 11.622 47.7046 11.5591 47.9995 11.5591C48.2945 11.5591 48.5855 11.6221 48.8536 11.7427L48.9673 11.7979L51.4854 13.1216L51.0049 10.3193C50.9481 9.98682 50.9728 9.64499 51.0772 9.32422C51.1816 9.00344 51.3625 8.71298 51.604 8.47754L53.6397 6.49414L50.8233 6.08252C50.49 6.0336 50.1734 5.9042 49.9009 5.70605C49.6285 5.50792 49.4081 5.24681 49.2588 4.94482L48 2.39453L46.7417 4.94434Z" fill="#FDC700"/>
<path d="M67.6833 1.53009C67.7125 1.47107 67.7576 1.42138 67.8136 1.38664C67.8695 1.3519 67.9341 1.3335 67.9999 1.3335C68.0658 1.3335 68.1303 1.3519 68.1863 1.38664C68.2423 1.42138 68.2874 1.47107 68.3166 1.53009L69.8566 4.64943C69.9581 4.85474 70.1078 5.03236 70.293 5.16706C70.4782 5.30176 70.6933 5.3895 70.9199 5.42276L74.3639 5.92676C74.4292 5.93621 74.4905 5.96374 74.5409 6.00623C74.5914 6.04871 74.6289 6.10446 74.6493 6.16716C74.6697 6.22987 74.6721 6.29703 74.6563 6.36105C74.6405 6.42507 74.6071 6.48339 74.5599 6.52943L72.0693 8.95476C71.905 9.11483 71.7821 9.31242 71.7112 9.53051C71.6402 9.74861 71.6233 9.98069 71.6619 10.2068L72.2499 13.6334C72.2615 13.6987 72.2544 13.7658 72.2296 13.8272C72.2048 13.8886 72.1632 13.9418 72.1096 13.9808C72.056 14.0197 71.9926 14.0428 71.9265 14.0474C71.8604 14.052 71.7944 14.0379 71.7359 14.0068L68.6573 12.3881C68.4544 12.2816 68.2287 12.2259 67.9996 12.2259C67.7705 12.2259 67.5448 12.2816 67.3419 12.3881L64.2639 14.0068C64.2055 14.0377 64.1395 14.0516 64.0736 14.0469C64.0076 14.0422 63.9443 14.0191 63.8908 13.9802C63.8373 13.9413 63.7958 13.8882 63.771 13.8269C63.7463 13.7656 63.7392 13.6986 63.7506 13.6334L64.3379 10.2074C64.3767 9.98125 64.3599 9.74903 64.289 9.53079C64.218 9.31256 64.095 9.11486 63.9306 8.95476L61.4399 6.53009C61.3923 6.48411 61.3586 6.42569 61.3426 6.36148C61.3266 6.29726 61.3289 6.22984 61.3493 6.16689C61.3697 6.10394 61.4074 6.04799 61.4581 6.00541C61.5088 5.96284 61.5704 5.93536 61.6359 5.92609L65.0793 5.42276C65.3061 5.38976 65.5215 5.30213 65.707 5.16742C65.8925 5.0327 66.0424 4.85494 66.1439 4.64943L67.6833 1.53009Z" fill="#FDC700"/>
<path d="M68.0708 0.669434C68.2125 0.679303 68.3506 0.718398 68.4761 0.784668L68.5381 0.820312L68.5972 0.859863C68.7123 0.942988 68.8087 1.04932 68.8804 1.17188L68.9141 1.23438L68.9146 1.23486L70.4546 4.35449C70.5083 4.4629 70.5873 4.55678 70.6851 4.62793C70.783 4.69916 70.8968 4.74558 71.0166 4.76318L74.4605 5.26709C74.6252 5.29104 74.7807 5.35491 74.9146 5.45264L74.9703 5.49658L75.0235 5.54395C75.1425 5.65938 75.2317 5.80257 75.2832 5.96094C75.3421 6.14188 75.3493 6.33575 75.3037 6.52051C75.2582 6.70532 75.1617 6.87395 75.0254 7.00684L72.5342 9.43262C72.4475 9.51722 72.3827 9.62161 72.3453 9.73682C72.3077 9.8521 72.2985 9.97474 72.3189 10.0942L72.9063 13.5176L72.9165 13.5884C72.9339 13.754 72.9103 13.922 72.8477 14.0771C72.7761 14.2543 72.6561 14.4077 72.5015 14.52C72.3468 14.6324 72.1634 14.6991 71.9727 14.7124C71.782 14.7257 71.5911 14.6851 71.4224 14.5952L68.3472 12.978C68.24 12.9218 68.1206 12.8926 67.9995 12.8926C67.8784 12.8926 67.7591 12.9222 67.6519 12.9785L67.6514 12.978L64.5752 14.5957L64.5757 14.5962C64.4071 14.6854 64.2167 14.7254 64.0264 14.7119C63.836 14.6984 63.653 14.6318 63.4986 14.5195C63.3442 14.4072 63.2244 14.2536 63.1529 14.0767C63.0814 13.8997 63.0608 13.7061 63.0938 13.5181L63.6807 10.0947L63.691 10.0044C63.6953 9.91407 63.6829 9.82329 63.6548 9.73682C63.6173 9.62149 63.5523 9.51674 63.4654 9.43213L60.9771 7.00928C60.8397 6.87658 60.7421 6.70827 60.6958 6.52295C60.6496 6.33757 60.6564 6.14266 60.7154 5.96094C60.7743 5.77931 60.8831 5.61796 61.0293 5.49512L61.0855 5.45117C61.2009 5.36721 61.3326 5.30815 61.4722 5.27832L61.5425 5.26611L64.9829 4.76318C65.1028 4.74573 65.217 4.69909 65.315 4.62793C65.4129 4.55679 65.4923 4.46299 65.5459 4.35449L67.0855 1.23486L67.086 1.23438C67.1703 1.06401 67.3004 0.920581 67.4619 0.820312L67.5235 0.784668C67.67 0.707302 67.8337 0.666992 68 0.666992L68.0708 0.669434ZM66.7417 4.94434C66.5924 5.24668 66.3715 5.50884 66.0987 5.70703C65.8259 5.90513 65.5089 6.03347 65.1753 6.08203L62.3589 6.49414L64.3955 8.47705C64.6374 8.7126 64.8185 9.00363 64.9229 9.32471C65.0273 9.64577 65.0522 9.98756 64.9952 10.3203L64.5147 13.1211L67.0318 11.7979L67.1455 11.7427C67.4136 11.622 67.7046 11.5591 67.9995 11.5591C68.2945 11.5591 68.5855 11.6221 68.8536 11.7427L68.9673 11.7979L71.4854 13.1216L71.0049 10.3193C70.9481 9.98682 70.9728 9.64499 71.0772 9.32422C71.1816 9.00344 71.3625 8.71298 71.604 8.47754L73.6397 6.49414L70.8233 6.08252C70.49 6.0336 70.1734 5.9042 69.9009 5.70605C69.6285 5.50792 69.4081 5.24681 69.2588 4.94482L68 2.39453L66.7417 4.94434Z" fill="#FDC700"/>
<path d="M87.6833 1.53009C87.7125 1.47107 87.7576 1.42138 87.8136 1.38664C87.8695 1.3519 87.9341 1.3335 87.9999 1.3335C88.0658 1.3335 88.1303 1.3519 88.1863 1.38664C88.2423 1.42138 88.2874 1.47107 88.3166 1.53009L89.8566 4.64943C89.9581 4.85474 90.1078 5.03236 90.293 5.16706C90.4782 5.30176 90.6933 5.3895 90.9199 5.42276L94.3639 5.92676C94.4292 5.93621 94.4905 5.96374 94.5409 6.00623C94.5914 6.04871 94.6289 6.10446 94.6493 6.16716C94.6697 6.22987 94.6721 6.29703 94.6563 6.36105C94.6405 6.42507 94.6071 6.48339 94.5599 6.52943L92.0693 8.95476C91.905 9.11483 91.7821 9.31242 91.7112 9.53051C91.6402 9.74861 91.6233 9.98069 91.6619 10.2068L92.2499 13.6334C92.2615 13.6987 92.2544 13.7658 92.2296 13.8272C92.2048 13.8886 92.1632 13.9418 92.1096 13.9808C92.056 14.0197 91.9926 14.0428 91.9265 14.0474C91.8604 14.052 91.7944 14.0379 91.7359 14.0068L88.6573 12.3881C88.4544 12.2816 88.2287 12.2259 87.9996 12.2259C87.7705 12.2259 87.5448 12.2816 87.3419 12.3881L84.2639 14.0068C84.2055 14.0377 84.1395 14.0516 84.0736 14.0469C84.0076 14.0422 83.9443 14.0191 83.8908 13.9802C83.8373 13.9413 83.7958 13.8882 83.771 13.8269C83.7463 13.7656 83.7392 13.6986 83.7506 13.6334L84.3379 10.2074C84.3767 9.98125 84.3599 9.74903 84.289 9.53079C84.218 9.31256 84.095 9.11486 83.9306 8.95476L81.4399 6.53009C81.3923 6.48411 81.3586 6.42569 81.3426 6.36148C81.3266 6.29726 81.3289 6.22984 81.3493 6.16689C81.3697 6.10394 81.4074 6.04799 81.4581 6.00541C81.5088 5.96284 81.5704 5.93536 81.6359 5.92609L85.0793 5.42276C85.3061 5.38976 85.5215 5.30213 85.707 5.16742C85.8925 5.0327 86.0424 4.85494 86.1439 4.64943L87.6833 1.53009Z" fill="#D1D5DC"/>
<path d="M88.0708 0.669434C88.2125 0.679303 88.3506 0.718398 88.4761 0.784668L88.5381 0.820312L88.5972 0.859863C88.7123 0.942988 88.8087 1.04932 88.8804 1.17188L88.9141 1.23438L88.9146 1.23486L90.4546 4.35449C90.5083 4.4629 90.5873 4.55678 90.6851 4.62793C90.783 4.69916 90.8968 4.74558 91.0166 4.76318L94.4605 5.26709C94.6252 5.29104 94.7807 5.35491 94.9146 5.45264L94.9703 5.49658L95.0235 5.54395C95.1425 5.65938 95.2317 5.80257 95.2832 5.96094C95.3421 6.14188 95.3493 6.33575 95.3037 6.52051C95.2582 6.70532 95.1617 6.87395 95.0254 7.00684L92.5342 9.43262C92.4475 9.51722 92.3827 9.62161 92.3453 9.73682C92.3077 9.8521 92.2985 9.97474 92.3189 10.0942L92.9063 13.5176L92.9165 13.5884C92.9339 13.754 92.9103 13.922 92.8477 14.0771C92.7761 14.2543 92.6561 14.4077 92.5015 14.52C92.3468 14.6324 92.1634 14.6991 91.9727 14.7124C91.782 14.7257 91.5911 14.6851 91.4224 14.5952L88.3472 12.978C88.24 12.9218 88.1206 12.8926 87.9995 12.8926C87.8784 12.8926 87.7591 12.9222 87.6519 12.9785L87.6514 12.978L84.5752 14.5957L84.5757 14.5962C84.4071 14.6854 84.2167 14.7254 84.0264 14.7119C83.836 14.6984 83.653 14.6318 83.4986 14.5195C83.3442 14.4072 83.2244 14.2536 83.1529 14.0767C83.0814 13.8997 83.0608 13.7061 83.0938 13.5181L83.6807 10.0947L83.691 10.0044C83.6953 9.91407 83.6829 9.82329 83.6548 9.73682C83.6173 9.62149 83.5523 9.51674 83.4654 9.43213L80.9771 7.00928C80.8397 6.87658 80.7421 6.70827 80.6958 6.52295C80.6496 6.33757 80.6564 6.14266 80.7154 5.96094C80.7743 5.77931 80.8831 5.61796 81.0293 5.49512L81.0855 5.45117C81.2009 5.36721 81.3326 5.30815 81.4722 5.27832L81.5425 5.26611L84.9829 4.76318C85.1028 4.74573 85.217 4.69909 85.315 4.62793C85.4129 4.55679 85.4923 4.46299 85.5459 4.35449L87.0855 1.23486L87.086 1.23438C87.1703 1.06401 87.3004 0.920581 87.4619 0.820312L87.5235 0.784668C87.67 0.707302 87.8337 0.666992 88 0.666992L88.0708 0.669434ZM86.7417 4.94434C86.5924 5.24668 86.3715 5.50884 86.0987 5.70703C85.8259 5.90513 85.5089 6.03347 85.1753 6.08203L82.3589 6.49414L84.3955 8.47705C84.6374 8.7126 84.8185 9.00363 84.9229 9.32471C85.0273 9.64577 85.0522 9.98756 84.9952 10.3203L84.5147 13.1211L87.0318 11.7979L87.1455 11.7427C87.4136 11.622 87.7046 11.5591 87.9995 11.5591C88.2945 11.5591 88.5855 11.6221 88.8536 11.7427L88.9673 11.7979L91.4854 13.1216L91.0049 10.3193C90.9481 9.98682 90.9728 9.64499 91.0772 9.32422C91.1816 9.00344 91.3625 8.71298 91.604 8.47754L93.6397 6.49414L90.8233 6.08252C90.49 6.0336 90.1734 5.9042 89.9009 5.70605C89.6285 5.50792 89.4081 5.24681 89.2588 4.94482L88 2.39453L86.7417 4.94434Z" fill="#D1D5DC"/>
</svg>
